<?xml version="1.0" encoding="UTF-8" standalone="no"?>
<!-- Created with Inkscape (http://www.inkscape.org/) -->

<svg
   version="1.1"
   id="svg2"
   xml:space="preserve"
   width="829.56665"
   height="392.12268"
   viewBox="0 0 829.56665 392.12268"
   sodipodi:docname="techo-seeklogo.com.ai"
   xmlns:inkscape="http://www.inkscape.org/namespaces/inkscape"
   xmlns:sodipodi="http://sodipodi.sourceforge.net/DTD/sodipodi-0.dtd"
   xmlns="http://www.w3.org/2000/svg"
   xmlns:svg="http://www.w3.org/2000/svg"><defs
     id="defs6"><clipPath
       clipPathUnits="userSpaceOnUse"
       id="clipPath16"><path
         d="M 0,294.092 H 622.175 V 0 H 0 Z"
         id="path14" /></clipPath></defs><sodipodi:namedview
     id="namedview4"
     pagecolor="#ffffff"
     bordercolor="#666666"
     borderopacity="1.0"
     inkscape:pageshadow="2"
     inkscape:pageopacity="0.0"
     inkscape:pagecheckerboard="0" /><g
     id="g8"
     inkscape:groupmode="layer"
     inkscape:label="techo-seeklogo.com"
     transform="matrix(1.3333333,0,0,-1.3333333,0,392.12267)"><g
       id="g10"><g
         id="g12"
         clip-path="url(#clipPath16)"><g
           id="g18"
           transform="translate(549.5938,143.6426)"><path
             d="m 0,0 h -17.156 c -1.662,0 -3.004,-1.348 -3.004,-3.006 v -29.616 c 0,-1.657 -1.346,-3.004 -3.006,-3.004 H -71.25 c -1.662,0 -3.004,1.347 -3.004,3.004 v 29.616 c 0,1.658 -1.344,3.006 -3.002,3.006 h -15.769 c -1.659,0 -2.079,0.973 -0.936,2.178 l 45.377,47.743 c 1.145,1.208 2.996,1.208 4.139,0 L 0.936,2.178 C 2.078,0.973 1.66,0 0,0 m -204.225,-21.779 -30.025,-0.218 c -1.123,-0.01 -2.564,-0.761 -3.277,-1.628 -6.448,-7.863 -15.5,-11.991 -26.639,-11.991 -10.205,0 -18.553,3.814 -25.418,10.679 -6.865,6.863 -10.207,15.398 -10.207,25.603 0,9.834 3.527,17.994 10.392,24.67 7.047,6.678 15.407,10.018 25.233,10.018 11.024,0 20.232,-4.291 27.469,-12.709 0.734,-0.856 2.203,-1.579 3.328,-1.579 h 29.144 z m 155.674,90.653 c -20.32,0 -38.566,-8.844 -51.123,-22.88 v 17.877 c -0.008,2.244 -2.297,2.028 -2.297,2.028 h -30.488 c -1.123,0 -2.035,-0.913 -2.035,-2.038 V 18.287 c 0,-1.126 -0.914,-2.035 -2.037,-2.035 h -30.78 c -1.125,0 -2.039,0.909 -2.039,2.035 v 45.574 c 0,1.125 -0.91,2.038 -2.033,2.038 h -30.803 c -1.127,0 -2.039,-0.913 -2.039,-2.038 V 37.994 c -5.377,7.883 -11.056,14.07 -17.08,18.507 -11.316,8.354 -25.422,12.433 -42.488,12.433 -19.484,0 -36.184,-6.493 -50.097,-19.301 -9.762,-9.002 -16.219,-19.391 -19.332,-31.226 -0.288,-1.088 -1.401,-1.975 -2.524,-1.975 h -37.13 c -1.124,0 -2.034,0.908 -2.034,2.036 v 14.923 c 0,1.129 0.91,2.037 2.034,2.037 h 42.003 c 1.129,0 2.037,0.912 2.035,2.038 l -0.082,26.395 c -0.005,1.125 -0.92,2.038 -2.044,2.038 l -165.71,0.047 c -1.124,0 -2.035,-0.913 -2.035,-2.034 V 37.466 c 0,-1.126 0.911,-2.038 2.035,-2.038 h 26.604 c 1.12,0 2.035,-0.908 2.035,-2.037 v -96.75 c 0,-1.129 0.912,-2.043 2.036,-2.043 h 30.62 c 1.126,0 2.035,0.914 2.035,2.043 v 96.75 c 0,1.129 0.913,2.037 2.039,2.037 h 20.19 c 1.123,0 2.037,-0.908 2.037,-2.037 v -96.83 c 0,-1.122 0.91,-2.035 2.034,-2.035 h 76.08 c 1.124,0 2.036,0.913 2.036,2.035 v 26.732 c 0,1.125 -0.912,2.036 -2.036,2.036 h -41.912 c -1.124,0 -2.034,0.912 -2.034,2.036 v 16.974 c 0,1.129 0.91,2.04 2.034,2.04 h 36.796 c 1.125,0 2.206,-0.897 2.455,-1.993 2.854,-12.708 9.159,-23.818 18.992,-33.257 13.728,-12.984 30.619,-19.48 50.655,-19.48 16.884,0 30.798,3.891 41.927,11.873 6.352,4.668 12.305,11.124 17.826,19.4 v -26.281 c 0,-1.129 0.912,-2.043 2.039,-2.043 h 30.803 c 1.123,0 2.033,0.914 2.033,2.043 v 45.664 c 0,1.123 0.914,2.034 2.039,2.034 h 30.78 c 1.123,0 2.037,-0.911 2.037,-2.034 v -45.664 c 0,-1.129 0.912,-2.043 2.035,-2.043 h 31.244 c 0,0 1.502,-0.159 1.541,1.377 v 18.627 c 12.557,-14.041 30.803,-22.885 51.123,-22.885 37.871,0 68.576,30.703 68.576,68.58 0,37.874 -30.705,68.577 -68.576,68.577"
             style="fill:#0092dd;fill-opacity:1;fill-rule:nonzero;stroke:none"
             id="path20" /></g></g></g></g></svg>
